<?xml version="1.0" encoding="utf-8"?>
<!--Generator: Adobe Illustrator 27.5.0, SVG Export Plug-In . SVG Version: 6.00 Build 0)-->
<svg version="1.1" xmlns="http://www.w3.org/2000/svg" xmlns:xlink="http://www.w3.org/1999/xlink" x="0px" y="0px" viewBox="0 0 500 500" style="enable-background:new 0 0 500 500;" xml:space="preserve">
  <g id="BACKGROUND">
    <rect transform="matrix(-1.836970e-16 1 -1 -1.836970e-16 500 5.684342e-14)" style="fill:#FFFFFF;" width="500" height="500"/>
    <path style="fill:#EDEDF7;" d="M0,488.898v-0.75h500v0.75H0z M500,476.666v-0.75H0v0.75H500z M500,464.434v-0.75H0v0.75H500z
		 M500,452.202v-0.75H0v0.75H500z M500,439.97v-0.75H0v0.75H500z M500,427.738v-0.75H0v0.75H500z M500,415.507v-0.75H0v0.75H500z
		 M500,403.275v-0.75H0v0.75H500z M500,391.043v-0.75H0v0.75H500z M500,378.811v-0.75H0v0.75H500z M500,366.579v-0.75H0v0.75H500z
		 M500,354.347v-0.75H0v0.75H500z M500,342.115v-0.75H0v0.75H500z M500,329.883v-0.75H0v0.75H500z M500,317.651v-0.75H0v0.75H500z
		 M500,305.419v-0.75H0v0.75H500z M500,293.187v-0.75H0v0.75H500z M500,280.955v-0.75H0v0.75H500z M500,268.723v-0.75H0v0.75H500z
		 M500,256.491v-0.75H0v0.75H500z M500,244.259v-0.75H0v0.75H500z M500,232.027v-0.75H0v0.75H500z M500,219.795v-0.75H0v0.75H500z
		 M500,207.563v-0.75H0v0.75H500z M500,195.331v-0.75H0v0.75H500z M500,183.099v-0.75H0v0.75H500z M500,170.867v-0.75H0v0.75H500z
		 M500,158.635v-0.75H0v0.75H500z M500,146.403v-0.75H0v0.75H500z M500,134.171v-0.75H0v0.75H500z M500,121.939v-0.75H0v0.75H500z
		 M500,109.707v-0.75H0v0.75H500z M500,97.475v-0.75H0v0.75H500z M500,85.243v-0.75H0v0.75H500z M500,73.011v-0.75H0v0.75H500z
		 M500,60.779v-0.75H0v0.75H500z M500,48.547v-0.75H0v0.75H500z M500,36.315v-0.75H0v0.75H500z M500,24.083v-0.75H0v0.75H500z
		 M500,11.851v-0.75H0v0.75H500z"/>
  </g>
  <g id="OBJECTS">
    <g>
      <g>
        <polygon style="fill:#F20CD2;" points="303.844,340.676 303.844,337.645 189.264,337.645 189.264,338.517 90.697,338.517 
				90.697,365.594 205.276,365.594 205.276,364.722 294.723,364.722 294.723,367.752 409.303,367.752 409.303,340.676 			"/>
        <polygon style="fill:#0BF4ED;" points="303.844,347.313 303.844,344.283 189.264,344.283 189.264,345.154 90.697,345.154 
				90.697,372.231 205.276,372.231 205.276,371.359 294.723,371.359 294.723,370.96 409.303,370.96 409.303,347.313 			"/>
        <polygon style="fill:#0A045B;" points="303.844,343.883 303.844,340.853 189.264,340.853 189.264,341.725 90.697,341.725 
				90.697,368.801 205.276,368.801 205.276,367.93 294.723,367.93 294.723,370.96 409.303,370.96 409.303,343.883 			"/>
      </g>
      <path style="fill:#FFFFFF;" d="M114.891,355.263l6.34,6.34l-1.369,1.369l-6.34-6.341l-6.34,6.341l-1.369-1.369l6.34-6.34
			l-6.34-6.34l1.369-1.369l6.34,6.34l6.34-6.34l1.369,1.369L114.891,355.263z M394.188,348.923l-1.369-1.369l-6.34,6.34l-6.341-6.34
			l-1.369,1.369l6.34,6.34l-6.34,6.34l1.369,1.369l6.341-6.341l6.34,6.341l1.369-1.369l-6.34-6.34L394.188,348.923z
			 M187.244,355.263h-0.994v6.517h9.296v-2.411h-6.275v-2.179l5.515-0.016v-1.911h0.994v-0.483h-5.515v-2.163h6.109v-2.411h-9.131
			V355.263z M172.455,355.263c0.315-1.506,1.577-2.581,3.189-2.581c1.057,0,2.229,0.495,3.055,1.272l1.718-2.113
			c-1.189-1.057-3.022-1.718-4.755-1.718c-3.388,0-5.943,2.155-6.315,5.14h-0.994c-0.031,0.245-0.075,0.484-0.075,0.739
			c0,3.368,2.659,5.91,6.192,5.91c1.618,0,3.583-0.626,4.821-1.486v-4.558h-2.609v2.923c-0.693,0.347-1.42,0.544-1.998,0.544
			c-1.882,0-3.302-1.436-3.302-3.334c0-0.256,0.031-0.502,0.08-0.739H172.455z M160.597,355.263l2.734,6.517h-3.22l-0.792-2.048
			h-5.003l-0.809,2.048h-3.104l2.799-6.517h0.994l2.172-5.057h3.104l2.121,5.057H160.597z M157.598,355.263h0.994l-0.756-1.97
			l-0.772,1.97h-0.994l-0.846,2.159h3.204L157.598,355.263z M362.714,355.263c0.026,0.239,0.067,0.471,0.067,0.721
			c0,3.451-2.526,5.796-6.275,5.796h-4.871v-6.517h0.994v-5.057h4.987c3.397,0,5.761,2.028,6.092,5.057H362.714z M359.623,355.263
			h0.994c-0.288-1.575-1.477-2.597-3.067-2.597h-1.898v2.597h-0.994v4.073h2.046c1.75,0,2.989-1.336,2.989-3.318
			C359.693,355.754,359.667,355.503,359.623,355.263z M242.905,355.263h-0.994c0.029,0.239,0.072,0.473,0.072,0.721
			c0,3.385-2.675,5.928-6.258,5.928c-3.583,0-6.258-2.542-6.258-5.928c0-0.249,0.044-0.482,0.072-0.721h0.994
			c0.358-2.991,2.868-5.14,6.186-5.14C240.037,350.123,242.546,352.285,242.905,355.263z M238.801,355.263h0.994
			c-0.31-1.503-1.544-2.564-3.042-2.564c-1.498,0-2.781,1.062-3.104,2.564h-0.994c-0.051,0.237-0.083,0.482-0.083,0.739
			c0,1.882,1.469,3.334,3.186,3.334c1.734,0,3.121-1.452,3.121-3.334C238.88,355.746,238.85,355.5,238.801,355.263z
			 M310.671,355.263h-0.994c0.029,0.239,0.072,0.473,0.072,0.721c0,3.385-2.674,5.928-6.257,5.928c-3.583,0-6.257-2.542-6.257-5.928
			c0-0.249,0.044-0.482,0.072-0.721h0.994c0.357-2.991,2.867-5.14,6.185-5.14C307.803,350.123,310.312,352.285,310.671,355.263z
			 M306.567,355.263h0.994c-0.31-1.503-1.544-2.564-3.043-2.564c-1.497,0-2.78,1.062-3.104,2.564h-0.994
			c-0.051,0.237-0.083,0.482-0.083,0.739c0,1.882,1.471,3.334,3.186,3.334c1.734,0,3.122-1.452,3.122-3.334
			C306.646,355.746,306.616,355.5,306.567,355.263z M324.657,355.263h-0.994v1.663c0,1.503-0.925,2.411-2.263,2.411
			c-1.37,0-2.361-0.924-2.361-2.411v-1.663h0.994v-5.057h-3.021v5.057h-0.994v1.663c0,3.055,2.096,4.987,5.366,4.987
			c3.254,0,5.3-1.932,5.3-4.987v-1.663h0.994v-5.057h-3.021V355.263z M147.028,354.268c0,0.352-0.031,0.683-0.087,0.995h-0.994
			c-0.376,2.109-1.996,3.314-4.57,3.314h-2.064v3.204h-3.022v-6.517h0.994v-5.057h5.085
			C145.327,350.206,147.028,351.692,147.028,354.268z M143.944,355.263c0.125-0.253,0.211-0.54,0.211-0.896
			c0-1.14-0.71-1.75-1.932-1.75h-1.915v2.646h-0.994v0.903h1.915c0.851,0,1.434-0.322,1.721-0.903H143.944z M342.598,350.206h2.806
			v5.057h-0.994v6.517h-2.642l-4.935-6.517h-0.316v6.517h-2.823v-6.517h0.994v-5.057h2.659l3.811,5.057h-0.994l1.44,1.911v-1.911
			h0.994V350.206z M337.827,355.263l-0.316-0.417v0.417H337.827z M283.987,355.263h-0.994v6.517h3.021v-4.177h5.185v-2.34h0.994
			v-0.07h-5.186v-2.576h5.614l0.016-2.411h-8.651V355.263z M221.173,350.206h2.807v5.057h-0.994v6.517h-2.642l-4.935-6.517h-0.316
			v6.517h-2.823v-6.517h0.994v-5.057h2.659l3.811,5.057h-0.994l1.44,1.911v-1.911h0.994V350.206z M216.402,355.263l-0.316-0.417
			v0.417H216.402z M248.056,352.699h3.434v2.564h-0.994v6.517h3.022v-6.517h0.994v-2.564h3.466v-2.493h-9.923V352.699z"/>
    </g>
    <g>
      <path style="fill:#F20CD2;" d="M110.121,271.56v-11.298c0-0.501-0.406-0.907-0.907-0.907c-0.501,0-0.907,0.406-0.907,0.907v11.298
			v13.913v15.396c0,0.721-0.587,1.308-1.308,1.308c-0.721,0-1.309-0.587-1.309-1.308v-29.31H84.192v-22.548l6.683-13.719v8.269
			c0,0.501,0.406,0.907,0.907,0.907c0.501,0,0.907-0.406,0.907-0.907V218.35c0-0.025-0.012-0.046-0.014-0.071v-24.35
			c0-0.721,0.587-1.309,1.309-1.309c0.721,0,1.309,0.588,1.309,1.309v32.295l19.999-41.055v86.391H110.121z M107.121,307.241
			c-0.723,0-1.309,0.586-1.309,1.309v8.861c0,0.723,0.586,1.309,1.309,1.309c0.723,0,1.309-0.586,1.309-1.309v-8.861
			C108.43,307.828,107.844,307.241,107.121,307.241z M184.763,166.454c0-0.721-0.587-1.309-1.309-1.309
			c-0.721,0-1.309,0.588-1.309,1.309v50.963v19.413v5.798c0,0.501-0.406,0.907-0.907,0.907s-0.907-0.406-0.907-0.907v-5.798h-7.23
			V209.7h-3.054v-21.094c0-0.721-0.588-1.309-1.309-1.309c-0.721,0-1.309,0.587-1.309,1.309v14.959v6.135v19.076
			c0,0.501-0.406,0.907-0.907,0.907s-0.907-0.406-0.907-0.907V209.7h-1.827v80.475h9.313v-27.864h16.498v-25.481h-4.836V166.454z
			 M94.129,185.815c0.723,0,1.309-0.586,1.309-1.309v-8.861c0-0.723-0.586-1.309-1.309-1.309c-0.723,0-1.309,0.586-1.309,1.309
			v8.861C92.82,185.229,93.406,185.815,94.129,185.815z M316.601,178.427c0.723,0,1.309-0.586,1.309-1.309v-8.861
			c0-0.723-0.586-1.309-1.309-1.309s-1.309,0.586-1.309,1.309v8.861C315.292,177.841,315.878,178.427,316.601,178.427z
			 M389.764,165.977c0.723,0,1.309-0.586,1.309-1.309v-8.861c0-0.723-0.586-1.309-1.309-1.309c-0.723,0-1.309,0.586-1.309,1.309
			v8.861C388.455,165.391,389.041,165.977,389.764,165.977z M168.832,183.405c0.723,0,1.309-0.586,1.309-1.309v-8.861
			c0-0.723-0.586-1.309-1.309-1.309c-0.723,0-1.309,0.586-1.309,1.309v8.861C167.523,182.818,168.109,183.405,168.832,183.405z
			 M273.003,145.594c0.723,0,1.309-0.586,1.309-1.309v-8.861c0-0.723-0.586-1.309-1.309-1.309s-1.309,0.586-1.309,1.309v8.861
			C271.694,145.008,272.28,145.594,273.003,145.594z M208.029,292.01c-0.723,0-1.309,0.586-1.309,1.309v8.861
			c0,0.723,0.586,1.309,1.309,1.309s1.309-0.586,1.309-1.309v-8.861C209.338,292.596,208.752,292.01,208.029,292.01z
			 M162.873,213.954h-20.57l0.184,27.131h-24.015l13.234-27.893v-13.656c0-0.501,0.406-0.907,0.907-0.907s0.907,0.406,0.907,0.907
			v9.833v15.379v3.363c0,0.721,0.587,1.309,1.309,1.309c0.721,0,1.309-0.587,1.309-1.309v-24.26l18.081-38.109h-27.567v14.247
			c0,0.501-0.406,0.907-0.907,0.907c-0.501,0-0.907-0.406-0.907-0.907v-14.247v-10.964v-15.826c0-0.721-0.588-1.309-1.309-1.309
			c-0.721,0-1.309,0.588-1.309,1.309v26.999l-6.014,12.346v88.268h26.097v27.864h13.526v-9.995c0-0.501,0.406-0.907,0.907-0.907
			s0.907,0.406,0.907,0.907v9.995v15.216v15.159c0,0.721,0.588,1.308,1.309,1.308c0.721,0,1.308-0.587,1.308-1.308v-30.375h2.612
			V213.954z M401.1,234.881h-1.791v-27.131h-6.391v17.852c0,0.501-0.406,0.907-0.907,0.907c-0.501,0-0.907-0.406-0.907-0.907
			v-17.852v-7.359v-28.26c0-0.721-0.587-1.308-1.308-1.308c-0.722,0-1.31,0.587-1.31,1.308v35.619h-2.942v80.475h13.765v-27.864
			h1.791V234.881z M336.66,305.789L336.66,305.789c-0.723,0-1.309,0.586-1.309,1.309v8.861c0,0.723,0.586,1.309,1.309,1.309h0
			c0.723,0,1.309-0.586,1.309-1.309v-8.861C337.969,306.375,337.383,305.789,336.66,305.789z M384.629,294.429v-80.475h-5.923
			v-20.835c0-0.721-0.587-1.309-1.31-1.309c-0.721,0-1.308,0.588-1.308,1.309v20.835v11.14c0,0.501-0.406,0.907-0.907,0.907
			c-0.501,0-0.907-0.406-0.907-0.907v-11.14h-5.762l0.184,27.131H344.68l35.747-75.342h-26.475v12.606
			c0,0.501-0.406,0.907-0.907,0.907c-0.501,0-0.907-0.406-0.907-0.907v-12.606v-12.606v-24.059c0-0.721-0.587-1.308-1.308-1.308
			c-0.722,0-1.31,0.587-1.31,1.308v36.665h-0.991l-8.445,17.336v4.995l-11.95,24.532v58.955h5.402v-4.622
			c0-0.501,0.406-0.907,0.907-0.907c0.501,0,0.907,0.406,0.907,0.907v4.622v20.59v7.038c0,0.721,0.587,1.308,1.31,1.308
			c0.721,0,1.308-0.588,1.308-1.308V271.56h2.116v-4.995h28.427v27.864h7.576v26.034c0,0.721,0.587,1.308,1.308,1.308
			c0.722,0,1.31-0.588,1.31-1.308v-7.65v-18.384v-6.827c0-0.501,0.406-0.907,0.907-0.907c0.501,0,0.907,0.406,0.907,0.907v6.827
			H384.629z M407.686,234.881v13.618c0,0.501-0.406,0.907-0.907,0.907c-0.501,0-0.907-0.406-0.907-0.907v-13.618v-11.594v-45.2
			c0-0.721-0.587-1.309-1.308-1.309c-0.722,0-1.31,0.588-1.31,1.309v56.794h-1.239v25.481h5.955v29.294
			c0,0.722,0.587,1.31,1.308,1.31c0.721,0,1.308-0.588,1.308-1.31v-14.132v-15.163v-10.049c0-0.501,0.406-0.907,0.907-0.907
			c0.501,0,0.907,0.406,0.907,0.907v10.049h3.407v-25.481H407.686z M409.341,294.576c-0.723,0-1.309,0.586-1.309,1.309v8.861
			c0,0.723,0.586,1.309,1.309,1.309c0.723,0,1.309-0.586,1.309-1.309v-8.861C410.65,295.162,410.064,294.576,409.341,294.576z
			 M279.148,281.238c-4.098,3.343-8.792,5.868-14.071,7.517v4.254c-2.355,0.736-4.817,1.309-7.4,1.696v25.104
			c0,0.721-0.588,1.308-1.308,1.308c-0.722,0-1.31-0.587-1.31-1.308v-8.726v-16.053v-9.158c0-0.501-0.406-0.907-0.907-0.907
			c-0.501,0-0.907,0.406-0.907,0.907v9.297c-1.451,0.104-2.921,0.178-4.436,0.178c-9.597,0-17.88-2.054-24.828-5.971V170.928
			c1.658-0.929,3.376-1.776,5.189-2.487v-38.709c0-0.721,0.587-1.309,1.308-1.309c0.721,0,1.309,0.587,1.309,1.309v25.644v12.128
			v13.083c0,0.501,0.406,0.907,0.907,0.907c0.501,0,0.907-0.406,0.907-0.907v-13.583c4.646-1.297,9.701-1.997,15.208-1.997
			c5.917,0,11.342,0.794,16.269,2.331v-4.254c1.62,0.505,3.187,1.09,4.699,1.754v15.592c0,0.501,0.406,0.907,0.907,0.907
			c0.501,0,0.907-0.406,0.907-0.907v-14.764V155.22v-4.159c0-0.721,0.587-1.308,1.308-1.308c0.722,0,1.31,0.587,1.31,1.308v16.02
			c1.74,1.026,3.375,2.199,4.94,3.467V281.238z M266.956,225.832c0-9.897-0.601-17.828-1.88-24.009v4.254
			c-2.534-12.251-7.739-17.604-16.269-17.604c-0.297,0-0.585,0.013-0.873,0.026v35.073c0,0.721-0.587,1.308-1.308,1.308
			c-0.721,0-1.309-0.587-1.309-1.308v-27.737v-7.031v-18.18c0-0.501-0.406-0.907-0.907-0.907c-0.501,0-0.907,0.406-0.907,0.907
			V189.3c-9.172,3.166-13.026,15.665-13.026,40.785c0,29.33,5.316,41.612,18.331,41.612c3.364,0,6.201-0.864,8.57-2.64v12.458
			c0,0.501,0.406,0.907,0.907,0.907c0.501,0,0.907-0.406,0.907-0.907V267.44v-11.136v-18.683c0-0.721,0.588-1.308,1.308-1.308
			c0.722,0,1.31,0.587,1.31,1.308v26.081c1.377-2.569,2.457-5.797,3.267-9.713v-4.254
			C266.354,243.56,266.956,235.66,266.956,225.832z M223.065,176.429c-16.11,9.549-24.668,29.554-24.668,58.651
			c0,16.682,2.818,30.398,8.25,40.887v10.141c0,0.723,0.586,1.309,1.309,1.309c0.723,0,1.308-0.586,1.308-1.309v-5.651v-11.335
			c0-0.501,0.406-0.907,0.907-0.907c0.501,0,0.907,0.406,0.907,0.907v13.909c3.354,4.456,7.365,8.067,11.987,10.829V176.429z
			 M289.467,290.379L289.467,290.379c-0.723,0-1.309,0.586-1.309,1.309v8.861c0,0.723,0.586,1.309,1.309,1.309h0
			c0.723,0,1.309-0.586,1.309-1.309v-8.861C290.776,290.965,290.19,290.379,289.467,290.379z M280.062,171.285v109.174
			c2.274-1.969,4.366-4.185,6.244-6.68v-8.215c0-0.501,0.406-0.907,0.907-0.907c0.501,0,0.907,0.406,0.907,0.907v5.652v13.567
			c0,0.721,0.587,1.308,1.308,1.308s1.308-0.587,1.308-1.308v-18.046c5.45-10.491,8.299-24.214,8.299-40.905
			C299.036,200.403,292.433,181.918,280.062,171.285z M327.22,214.482l-7.511,15.419v16.282c0,0.501-0.406,0.907-0.907,0.907
			c-0.501,0-0.907-0.406-0.907-0.907v-12.558v-12.653v-38.147c0-0.721-0.587-1.308-1.308-1.308s-1.308,0.587-1.308,1.308v56.172
			l-4.879,10.015v22.548h16.82V214.482z"/>
      <path style="fill:#0BF4ED;" d="M110.121,279.871v-11.298c0-0.501-0.406-0.907-0.907-0.907c-0.501,0-0.907,0.406-0.907,0.907
			v11.298v13.914v15.396c0,0.721-0.587,1.308-1.308,1.308c-0.721,0-1.309-0.588-1.309-1.308v-29.31H84.192v-22.548l6.683-13.719
			v8.268c0,0.501,0.406,0.907,0.907,0.907c0.501,0,0.907-0.406,0.907-0.907v-25.211c0-0.025-0.012-0.046-0.014-0.071v-24.35
			c0-0.721,0.587-1.309,1.309-1.309c0.721,0,1.309,0.587,1.309,1.309v32.295l19.999-41.055v86.391H110.121z M107.121,315.553
			c-0.723,0-1.309,0.586-1.309,1.309v8.861c0,0.723,0.586,1.309,1.309,1.309c0.723,0,1.309-0.586,1.309-1.309v-8.861
			C108.43,316.139,107.844,315.553,107.121,315.553z M184.763,174.766c0-0.721-0.587-1.309-1.309-1.309
			c-0.721,0-1.309,0.588-1.309,1.309v50.963v19.413v5.798c0,0.501-0.406,0.907-0.907,0.907s-0.907-0.406-0.907-0.907v-5.798h-7.23
			v-27.131h-3.054v-21.094c0-0.721-0.588-1.309-1.309-1.309c-0.721,0-1.309,0.587-1.309,1.309v14.959v6.135v19.076
			c0,0.501-0.406,0.907-0.907,0.907s-0.907-0.406-0.907-0.907v-19.076h-1.827v80.475h9.313v-27.864h16.498v-25.481h-4.836V174.766z
			 M94.129,194.126c0.723,0,1.309-0.586,1.309-1.309v-8.861c0-0.723-0.586-1.309-1.309-1.309c-0.723,0-1.309,0.586-1.309,1.309
			v8.861C92.82,193.54,93.406,194.126,94.129,194.126z M316.601,186.739c0.723,0,1.309-0.586,1.309-1.309v-8.861
			c0-0.723-0.586-1.309-1.309-1.309s-1.309,0.586-1.309,1.309v8.861C315.292,186.153,315.878,186.739,316.601,186.739z
			 M389.764,174.288c0.723,0,1.309-0.586,1.309-1.309v-8.861c0-0.723-0.586-1.309-1.309-1.309c-0.723,0-1.309,0.586-1.309,1.309
			v8.861C388.455,173.702,389.041,174.288,389.764,174.288z M168.832,191.716c0.723,0,1.309-0.586,1.309-1.309v-8.861
			c0-0.723-0.586-1.309-1.309-1.309c-0.723,0-1.309,0.586-1.309,1.309v8.861C167.523,191.13,168.109,191.716,168.832,191.716z
			 M273.003,153.906c0.723,0,1.309-0.586,1.309-1.309v-8.861c0-0.723-0.586-1.309-1.309-1.309s-1.309,0.586-1.309,1.309v8.861
			C271.694,153.32,272.28,153.906,273.003,153.906z M208.029,300.322c-0.723,0-1.309,0.586-1.309,1.309v8.861
			c0,0.723,0.586,1.309,1.309,1.309s1.309-0.586,1.309-1.309v-8.861C209.338,300.908,208.752,300.322,208.029,300.322z
			 M162.873,222.265h-20.57l0.184,27.131h-24.015l13.234-27.893v-13.656c0-0.501,0.406-0.907,0.907-0.907s0.907,0.406,0.907,0.907
			v9.833v15.379v3.363c0,0.721,0.587,1.309,1.309,1.309c0.721,0,1.309-0.587,1.309-1.309v-24.26l18.081-38.109h-27.567v14.247
			c0,0.501-0.406,0.907-0.907,0.907c-0.501,0-0.907-0.406-0.907-0.907v-14.247V163.09v-15.826c0-0.721-0.588-1.309-1.309-1.309
			c-0.721,0-1.309,0.588-1.309,1.309v26.999l-6.014,12.346v88.268h26.097v27.864h13.526v-9.995c0-0.501,0.406-0.907,0.907-0.907
			s0.907,0.406,0.907,0.907v9.995v15.216v15.159c0,0.721,0.588,1.308,1.309,1.308c0.721,0,1.308-0.587,1.308-1.308V302.74h2.612
			V222.265z M401.1,243.193h-1.791v-27.131h-6.391v17.852c0,0.501-0.406,0.907-0.907,0.907c-0.501,0-0.907-0.406-0.907-0.907
			v-17.852v-7.359v-28.26c0-0.722-0.587-1.308-1.308-1.308c-0.722,0-1.31,0.587-1.31,1.308v35.619h-2.942v80.475h13.765v-27.864
			h1.791V243.193z M336.66,314.101L336.66,314.101c-0.723,0-1.309,0.586-1.309,1.309v8.861c0,0.723,0.586,1.309,1.309,1.309h0
			c0.723,0,1.309-0.586,1.309-1.309v-8.861C337.969,314.687,337.383,314.101,336.66,314.101z M384.629,302.74v-80.475h-5.923
			v-20.835c0-0.721-0.587-1.309-1.31-1.309c-0.721,0-1.308,0.587-1.308,1.309v20.835v11.14c0,0.501-0.406,0.907-0.907,0.907
			c-0.501,0-0.907-0.406-0.907-0.907v-11.14h-5.762l0.184,27.131H344.68l35.747-75.342h-26.475v12.606
			c0,0.501-0.406,0.907-0.907,0.907c-0.501,0-0.907-0.406-0.907-0.907v-12.606v-12.606v-24.059c0-0.721-0.587-1.308-1.308-1.308
			c-0.722,0-1.31,0.587-1.31,1.308v36.665h-0.991l-8.445,17.336v4.995l-11.95,24.532v58.955h5.402v-4.622
			c0-0.501,0.406-0.907,0.907-0.907c0.501,0,0.907,0.406,0.907,0.907v4.622v20.59v7.038c0,0.721,0.587,1.308,1.31,1.308
			c0.721,0,1.308-0.588,1.308-1.308v-27.628h2.116v-4.995h28.427v27.864h7.576v26.034c0,0.721,0.587,1.308,1.308,1.308
			c0.722,0,1.31-0.587,1.31-1.308v-7.65V302.74v-6.827c0-0.501,0.406-0.907,0.907-0.907c0.501,0,0.907,0.406,0.907,0.907v6.827
			H384.629z M407.686,243.193v13.618c0,0.501-0.406,0.907-0.907,0.907c-0.501,0-0.907-0.406-0.907-0.907v-13.618v-11.594v-45.2
			c0-0.721-0.587-1.309-1.308-1.309c-0.722,0-1.31,0.588-1.31,1.309v56.794h-1.239v25.481h5.955v29.294
			c0,0.722,0.587,1.31,1.308,1.31c0.721,0,1.308-0.587,1.308-1.31v-14.132v-15.163v-10.049c0-0.501,0.406-0.907,0.907-0.907
			c0.501,0,0.907,0.406,0.907,0.907v10.049h3.407v-25.481H407.686z M409.341,302.888c-0.723,0-1.309,0.586-1.309,1.309v8.861
			c0,0.723,0.586,1.309,1.309,1.309c0.723,0,1.309-0.586,1.309-1.309v-8.861C410.65,303.474,410.064,302.888,409.341,302.888z
			 M279.148,289.55c-4.098,3.343-8.792,5.868-14.071,7.517v4.254c-2.355,0.736-4.817,1.309-7.4,1.696v25.104
			c0,0.721-0.588,1.308-1.308,1.308c-0.722,0-1.31-0.588-1.31-1.308v-8.726v-16.053v-9.158c0-0.501-0.406-0.907-0.907-0.907
			c-0.501,0-0.907,0.406-0.907,0.907v9.297c-1.451,0.104-2.921,0.178-4.436,0.178c-9.597,0-17.88-2.054-24.828-5.971V179.239
			c1.658-0.929,3.376-1.776,5.189-2.487v-38.709c0-0.721,0.587-1.309,1.308-1.309c0.721,0,1.309,0.587,1.309,1.309v25.644v12.128
			v13.083c0,0.501,0.406,0.907,0.907,0.907c0.501,0,0.907-0.406,0.907-0.907v-13.583c4.646-1.297,9.701-1.997,15.208-1.997
			c5.917,0,11.342,0.794,16.269,2.331v-4.254c1.62,0.505,3.187,1.09,4.699,1.754v15.592c0,0.501,0.406,0.907,0.907,0.907
			c0.501,0,0.907-0.406,0.907-0.907V173.98v-10.448v-4.159c0-0.721,0.587-1.308,1.308-1.308c0.722,0,1.31,0.587,1.31,1.308v16.021
			c1.74,1.026,3.375,2.198,4.94,3.467V289.55z M266.956,234.143c0-9.898-0.601-17.828-1.88-24.009v4.254
			c-2.534-12.251-7.739-17.604-16.269-17.604c-0.297,0-0.585,0.013-0.873,0.026v35.073c0,0.722-0.587,1.308-1.308,1.308
			c-0.721,0-1.309-0.587-1.309-1.308v-27.737v-7.031v-18.18c0-0.501-0.406-0.907-0.907-0.907c-0.501,0-0.907,0.406-0.907,0.907
			v18.677c-9.172,3.166-13.026,15.665-13.026,40.785c0,29.33,5.316,41.612,18.331,41.612c3.364,0,6.201-0.864,8.57-2.64v12.458
			c0,0.501,0.406,0.907,0.907,0.907c0.501,0,0.907-0.406,0.907-0.907v-14.076v-11.136v-18.683c0-0.721,0.588-1.308,1.308-1.308
			c0.722,0,1.31,0.588,1.31,1.308v26.081c1.377-2.569,2.457-5.797,3.267-9.713v-4.254
			C266.354,251.872,266.956,243.971,266.956,234.143z M223.065,184.741c-16.11,9.549-24.668,29.554-24.668,58.651
			c0,16.682,2.818,30.398,8.25,40.887v10.142c0,0.723,0.586,1.309,1.309,1.309c0.723,0,1.308-0.586,1.308-1.309v-5.651v-11.336
			c0-0.501,0.406-0.907,0.907-0.907c0.501,0,0.907,0.406,0.907,0.907v13.91c3.354,4.456,7.365,8.067,11.987,10.829V184.741z
			 M289.467,298.69L289.467,298.69c-0.723,0-1.309,0.586-1.309,1.309v8.861c0,0.723,0.586,1.309,1.309,1.309h0
			c0.723,0,1.309-0.586,1.309-1.309v-8.861C290.776,299.276,290.19,298.69,289.467,298.69z M280.062,179.596V288.77
			c2.274-1.969,4.366-4.185,6.244-6.68v-8.215c0-0.501,0.406-0.907,0.907-0.907c0.501,0,0.907,0.406,0.907,0.907v5.652v13.567
			c0,0.721,0.587,1.308,1.308,1.308s1.308-0.587,1.308-1.308v-18.046c5.45-10.491,8.299-24.214,8.299-40.905
			C299.036,208.714,292.433,190.229,280.062,179.596z M327.22,222.794l-7.511,15.419v16.282c0,0.501-0.406,0.907-0.907,0.907
			c-0.501,0-0.907-0.406-0.907-0.907v-12.558v-12.653v-38.148c0-0.721-0.587-1.308-1.308-1.308s-1.308,0.587-1.308,1.308v56.172
			l-4.879,10.015v22.548h16.82V222.794z"/>
      <path style="fill:#0A045B;" d="M110.121,275.906v-11.298c0-0.501-0.406-0.907-0.907-0.907c-0.501,0-0.907,0.406-0.907,0.907
			v11.298v13.914v15.396c0,0.721-0.587,1.308-1.308,1.308c-0.721,0-1.309-0.587-1.309-1.308v-29.31H84.192v-22.548l6.683-13.719
			v8.268c0,0.501,0.406,0.907,0.907,0.907c0.501,0,0.907-0.406,0.907-0.907v-25.211c0-0.025-0.012-0.046-0.014-0.071v-24.35
			c0-0.721,0.587-1.309,1.309-1.309c0.721,0,1.309,0.587,1.309,1.309v32.295l19.999-41.055v86.391H110.121z M107.121,311.588
			c-0.723,0-1.309,0.586-1.309,1.309v8.861c0,0.723,0.586,1.309,1.309,1.309c0.723,0,1.309-0.586,1.309-1.309v-8.861
			C108.43,312.174,107.844,311.588,107.121,311.588z M184.763,170.801c0-0.721-0.587-1.309-1.309-1.309
			c-0.721,0-1.309,0.587-1.309,1.309v50.963v19.413v5.798c0,0.501-0.406,0.907-0.907,0.907s-0.907-0.406-0.907-0.907v-5.798h-7.23
			v-27.131h-3.054v-21.094c0-0.721-0.588-1.309-1.309-1.309c-0.721,0-1.309,0.588-1.309,1.309v14.959v6.135v19.076
			c0,0.501-0.406,0.907-0.907,0.907s-0.907-0.406-0.907-0.907v-19.076h-1.827v80.475h9.313v-27.864h16.498v-25.481h-4.836V170.801z
			 M94.129,190.161c0.723,0,1.309-0.586,1.309-1.309v-8.861c0-0.723-0.586-1.309-1.309-1.309c-0.723,0-1.309,0.586-1.309,1.309
			v8.861C92.82,189.575,93.406,190.161,94.129,190.161z M316.601,182.773c0.723,0,1.309-0.586,1.309-1.309v-8.861
			c0-0.723-0.586-1.309-1.309-1.309s-1.309,0.586-1.309,1.309v8.861C315.292,182.187,315.878,182.773,316.601,182.773z
			 M389.764,170.323c0.723,0,1.309-0.586,1.309-1.309v-8.861c0-0.723-0.586-1.309-1.309-1.309c-0.723,0-1.309,0.586-1.309,1.309
			v8.861C388.455,169.737,389.041,170.323,389.764,170.323z M168.832,187.751c0.723,0,1.309-0.586,1.309-1.309v-8.861
			c0-0.723-0.586-1.309-1.309-1.309c-0.723,0-1.309,0.586-1.309,1.309v8.861C167.523,187.165,168.109,187.751,168.832,187.751z
			 M273.003,149.941c0.723,0,1.309-0.586,1.309-1.309v-8.861c0-0.723-0.586-1.309-1.309-1.309s-1.309,0.586-1.309,1.309v8.861
			C271.694,149.355,272.28,149.941,273.003,149.941z M208.029,296.357c-0.723,0-1.309,0.586-1.309,1.309v8.861
			c0,0.723,0.586,1.309,1.309,1.309s1.309-0.586,1.309-1.309v-8.861C209.338,296.943,208.752,296.357,208.029,296.357z
			 M162.873,218.3h-20.57l0.184,27.131h-24.015l13.234-27.893v-13.656c0-0.501,0.406-0.907,0.907-0.907s0.907,0.406,0.907,0.907
			v9.833v15.379v3.363c0,0.721,0.587,1.309,1.309,1.309c0.721,0,1.309-0.587,1.309-1.309v-24.26l18.081-38.109h-27.567v14.247
			c0,0.501-0.406,0.907-0.907,0.907c-0.501,0-0.907-0.406-0.907-0.907v-14.247v-10.964v-15.826c0-0.721-0.588-1.309-1.309-1.309
			c-0.721,0-1.309,0.588-1.309,1.309v26.999l-6.014,12.346v88.268h26.097v27.864h13.526v-9.995c0-0.501,0.406-0.907,0.907-0.907
			s0.907,0.406,0.907,0.907v9.995v15.216v15.159c0,0.721,0.588,1.308,1.309,1.308c0.721,0,1.308-0.587,1.308-1.308v-30.375h2.612
			V218.3z M401.1,239.227h-1.791v-27.131h-6.391v17.852c0,0.501-0.406,0.907-0.907,0.907c-0.501,0-0.907-0.406-0.907-0.907v-17.852
			v-7.359v-28.26c0-0.721-0.587-1.308-1.308-1.308c-0.722,0-1.31,0.587-1.31,1.308v35.619h-2.942v80.475h13.765v-27.864h1.791
			V239.227z M336.66,310.135L336.66,310.135c-0.723,0-1.309,0.586-1.309,1.309v8.861c0,0.723,0.586,1.309,1.309,1.309h0
			c0.723,0,1.309-0.586,1.309-1.309v-8.861C337.969,310.721,337.383,310.135,336.66,310.135z M384.629,298.775V218.3h-5.923v-20.835
			c0-0.721-0.587-1.309-1.31-1.309c-0.721,0-1.308,0.588-1.308,1.309V218.3v11.14c0,0.501-0.406,0.907-0.907,0.907
			c-0.501,0-0.907-0.406-0.907-0.907V218.3h-5.762l0.184,27.131H344.68l35.747-75.342h-26.475v12.606
			c0,0.501-0.406,0.907-0.907,0.907c-0.501,0-0.907-0.406-0.907-0.907v-12.606v-12.606v-24.059c0-0.721-0.587-1.308-1.308-1.308
			c-0.722,0-1.31,0.587-1.31,1.308v36.665h-0.991l-8.445,17.336v4.995l-11.95,24.532v58.955h5.402v-4.622
			c0-0.501,0.406-0.907,0.907-0.907c0.501,0,0.907,0.406,0.907,0.907v4.622v20.59v7.038c0,0.721,0.587,1.308,1.31,1.308
			c0.721,0,1.308-0.587,1.308-1.308v-27.628h2.116v-4.995h28.427v27.864h7.576v26.034c0,0.721,0.587,1.308,1.308,1.308
			c0.722,0,1.31-0.588,1.31-1.308v-7.65v-18.385v-6.827c0-0.501,0.406-0.907,0.907-0.907c0.501,0,0.907,0.406,0.907,0.907v6.827
			H384.629z M407.686,239.227v13.618c0,0.501-0.406,0.907-0.907,0.907c-0.501,0-0.907-0.406-0.907-0.907v-13.618v-11.594v-45.2
			c0-0.721-0.587-1.309-1.308-1.309c-0.722,0-1.31,0.587-1.31,1.309v56.793h-1.239v25.481h5.955v29.294
			c0,0.722,0.587,1.31,1.308,1.31c0.721,0,1.308-0.587,1.308-1.31v-14.132v-15.163v-10.049c0-0.501,0.406-0.907,0.907-0.907
			c0.501,0,0.907,0.406,0.907,0.907v10.049h3.407v-25.481H407.686z M409.341,298.923c-0.723,0-1.309,0.586-1.309,1.309v8.861
			c0,0.723,0.586,1.309,1.309,1.309c0.723,0,1.309-0.586,1.309-1.309v-8.861C410.65,299.509,410.064,298.923,409.341,298.923z
			 M279.148,285.585c-4.098,3.343-8.792,5.868-14.071,7.517v4.254c-2.355,0.736-4.817,1.309-7.4,1.696v25.104
			c0,0.721-0.588,1.308-1.308,1.308c-0.722,0-1.31-0.588-1.31-1.308v-8.726v-16.053v-9.158c0-0.501-0.406-0.907-0.907-0.907
			c-0.501,0-0.907,0.406-0.907,0.907v9.296c-1.451,0.105-2.921,0.178-4.436,0.178c-9.597,0-17.88-2.054-24.828-5.971V175.274
			c1.658-0.929,3.376-1.776,5.189-2.487v-38.709c0-0.721,0.587-1.309,1.308-1.309c0.721,0,1.309,0.587,1.309,1.309v25.644v12.128
			v13.083c0,0.501,0.406,0.907,0.907,0.907c0.501,0,0.907-0.406,0.907-0.907v-13.583c4.646-1.297,9.701-1.997,15.208-1.997
			c5.917,0,11.342,0.794,16.269,2.33v-4.253c1.62,0.505,3.187,1.09,4.699,1.754v15.592c0,0.501,0.406,0.907,0.907,0.907
			c0.501,0,0.907-0.406,0.907-0.907v-14.763v-10.448v-4.159c0-0.721,0.587-1.308,1.308-1.308c0.722,0,1.31,0.587,1.31,1.308v16.02
			c1.74,1.026,3.375,2.199,4.94,3.467V285.585z M266.956,230.178c0-9.898-0.601-17.828-1.88-24.009v4.254
			c-2.534-12.251-7.739-17.604-16.269-17.604c-0.297,0-0.585,0.013-0.873,0.026v35.073c0,0.721-0.587,1.308-1.308,1.308
			c-0.721,0-1.309-0.587-1.309-1.308V200.18v-7.031v-18.18c0-0.501-0.406-0.907-0.907-0.907c-0.501,0-0.907,0.406-0.907,0.907
			v18.677c-9.172,3.166-13.026,15.665-13.026,40.785c0,29.33,5.316,41.612,18.331,41.612c3.364,0,6.201-0.864,8.57-2.64v12.458
			c0,0.501,0.406,0.907,0.907,0.907c0.501,0,0.907-0.406,0.907-0.907v-14.076v-11.136v-18.683c0-0.721,0.588-1.308,1.308-1.308
			c0.722,0,1.31,0.587,1.31,1.308v26.081c1.377-2.569,2.457-5.797,3.267-9.713v-4.253
			C266.354,247.907,266.956,240.006,266.956,230.178z M223.065,180.775c-16.11,9.549-24.668,29.554-24.668,58.651
			c0,16.682,2.818,30.398,8.25,40.887v10.142c0,0.723,0.586,1.309,1.309,1.309c0.723,0,1.308-0.586,1.308-1.309v-5.651v-11.335
			c0-0.501,0.406-0.907,0.907-0.907c0.501,0,0.907,0.406,0.907,0.907v13.91c3.354,4.456,7.365,8.067,11.987,10.829V180.775z
			 M289.467,294.725L289.467,294.725c-0.723,0-1.309,0.586-1.309,1.309v8.861c0,0.723,0.586,1.309,1.309,1.309h0
			c0.723,0,1.309-0.586,1.309-1.309v-8.861C290.776,295.311,290.19,294.725,289.467,294.725z M280.062,175.631v109.174
			c2.274-1.969,4.366-4.185,6.244-6.68v-8.215c0-0.501,0.406-0.907,0.907-0.907c0.501,0,0.907,0.406,0.907,0.907v5.652v13.567
			c0,0.721,0.587,1.308,1.308,1.308s1.308-0.587,1.308-1.308v-18.046c5.45-10.491,8.299-24.214,8.299-40.905
			C299.036,204.749,292.433,186.264,280.062,175.631z M327.22,218.829l-7.511,15.419v16.282c0,0.501-0.406,0.907-0.907,0.907
			c-0.501,0-0.907-0.406-0.907-0.907v-12.558v-12.653v-38.148c0-0.721-0.587-1.308-1.308-1.308s-1.308,0.587-1.308,1.308v56.172
			l-4.879,10.015v22.548h16.82V218.829z"/>
    </g>
    <g>
      <path style="fill:#F20CD2;" d="M219.917,143.667h1.239c0.001-0.061,0.01-0.117,0.01-0.178c0-3.708-2.519-5.847-6.939-5.847h-7.486
			v6.025H205.5v10.635h4.349v-4.611h3.137h0.095l2.424,4.611h4.919l-3.47-5.442C218.833,147.885,219.867,146.092,219.917,143.667z
			 M215.788,143.667c-0.015,1.663-1.032,2.555-2.778,2.555h-3.161v-2.555h1.239v-2.555h3.161c1.759,0,2.78,0.88,2.78,2.519
			c0,0.012-0.003,0.023-0.003,0.036H215.788z M195.57,137.523c-4.302,0-7.685,2.501-8.692,6.143h-1.239
			c-0.2,0.724-0.315,1.489-0.315,2.293c0,4.872,3.85,8.532,9.007,8.532c5.157,0,9.007-3.66,9.007-8.532
			c0-0.803-0.116-1.568-0.317-2.293h1.239C203.25,140.037,199.868,137.523,195.57,137.523z M198.87,145.984
			c0,2.709-1.996,4.801-4.492,4.801c-2.471,0-4.587-2.092-4.587-4.801c0-0.858,0.228-1.636,0.594-2.317h1.239
			c0.789-1.469,2.288-2.436,3.993-2.436c1.705,0,3.16,0.967,3.921,2.436h-1.239C198.652,144.347,198.87,145.126,198.87,145.984z
			 M160.706,137.642h-7.486v6.025h-1.239v10.635h4.349v-4.611h3.137h0.095l2.424,4.611h4.919l-3.47-5.442
			c1.878-0.974,2.912-2.767,2.961-5.193h1.239c0.001-0.061,0.009-0.117,0.009-0.178
			C167.645,139.781,165.126,137.642,160.706,137.642z M162.268,143.667c-0.015,1.663-1.032,2.555-2.777,2.555h-3.161v-2.555h1.239
			v-2.555h3.161c1.759,0,2.78,0.88,2.78,2.519c0,0.012-0.003,0.023-0.003,0.036H162.268z M177.912,137.642h-7.486v6.025h-1.239
			v10.635h4.349v-4.611h3.137h0.095l2.424,4.611h4.919l-3.47-5.442c1.878-0.974,2.912-2.767,2.961-5.193h1.239
			c0.001-0.061,0.01-0.117,0.01-0.178C184.851,139.781,182.333,137.642,177.912,137.642z M179.474,143.667
			c-0.015,1.663-1.032,2.555-2.778,2.555h-3.161v-2.555h1.239v-2.555h3.161c1.759,0,2.78,0.88,2.78,2.519
			c0,0.012-0.003,0.023-0.003,0.036H179.474z M137.178,137.642h13.143v3.47h-8.793v2.555h-1.239v0.558h7.938v3.447l-7.938,0.024
			v3.137h9.031v3.47h-13.38v-10.635h1.239V137.642z"/>
      <path style="fill:#0BF4ED;" d="M219.917,145.862h1.239c0.001-0.061,0.01-0.117,0.01-0.178c0-3.708-2.519-5.847-6.939-5.847h-7.486
			v6.025H205.5v10.635h4.349v-4.61h3.137h0.095l2.424,4.61h4.919l-3.47-5.442C218.833,150.081,219.867,148.288,219.917,145.862z
			 M215.788,145.862c-0.015,1.663-1.032,2.555-2.778,2.555h-3.161v-2.555h1.239v-2.555h3.161c1.759,0,2.78,0.88,2.78,2.519
			c0,0.013-0.003,0.023-0.003,0.036H215.788z M195.57,139.719c-4.302,0-7.685,2.501-8.692,6.143h-1.239
			c-0.2,0.724-0.315,1.489-0.315,2.293c0,4.872,3.85,8.532,9.007,8.532c5.157,0,9.007-3.66,9.007-8.532
			c0-0.803-0.116-1.568-0.317-2.293h1.239C203.25,142.232,199.868,139.719,195.57,139.719z M198.87,148.179
			c0,2.709-1.996,4.801-4.492,4.801c-2.471,0-4.587-2.092-4.587-4.801c0-0.858,0.228-1.636,0.594-2.317h1.239
			c0.789-1.469,2.288-2.436,3.993-2.436c1.705,0,3.16,0.967,3.921,2.436h-1.239C198.652,146.543,198.87,147.321,198.87,148.179z
			 M160.706,139.837h-7.486v6.025h-1.239v10.635h4.349v-4.61h3.137h0.095l2.424,4.61h4.919l-3.47-5.442
			c1.878-0.974,2.912-2.767,2.961-5.193h1.239c0.001-0.061,0.009-0.117,0.009-0.178
			C167.645,141.976,165.126,139.837,160.706,139.837z M162.268,145.862c-0.015,1.663-1.032,2.555-2.777,2.555h-3.161v-2.555h1.239
			v-2.555h3.161c1.759,0,2.78,0.88,2.78,2.519c0,0.013-0.003,0.023-0.003,0.036H162.268z M177.912,139.837h-7.486v6.025h-1.239
			v10.635h4.349v-4.61h3.137h0.095l2.424,4.61h4.919l-3.47-5.442c1.878-0.974,2.912-2.767,2.961-5.193h1.239
			c0.001-0.061,0.01-0.117,0.01-0.178C184.851,141.976,182.333,139.837,177.912,139.837z M179.474,145.862
			c-0.015,1.663-1.032,2.555-2.778,2.555h-3.161v-2.555h1.239v-2.555h3.161c1.759,0,2.78,0.88,2.78,2.519
			c0,0.013-0.003,0.023-0.003,0.036H179.474z M137.178,139.837h13.143v3.47h-8.793v2.555h-1.239v0.558h7.938v3.447l-7.938,0.024
			v3.137h9.031v3.47h-13.38v-10.635h1.239V139.837z"/>
      <path style="fill:#0A045B;" d="M219.917,144.679h1.239c0.001-0.061,0.01-0.117,0.01-0.178c0-3.708-2.519-5.847-6.939-5.847h-7.486
			v6.025H205.5v10.635h4.349v-4.61h3.137h0.095l2.424,4.61h4.919l-3.47-5.442C218.833,148.898,219.867,147.104,219.917,144.679z
			 M215.788,144.679c-0.015,1.663-1.032,2.555-2.778,2.555h-3.161v-2.555h1.239v-2.555h3.161c1.759,0,2.78,0.88,2.78,2.519
			c0,0.013-0.003,0.023-0.003,0.036H215.788z M195.57,138.535c-4.302,0-7.685,2.501-8.692,6.143h-1.239
			c-0.2,0.724-0.315,1.489-0.315,2.293c0,4.872,3.85,8.532,9.007,8.532c5.157,0,9.007-3.66,9.007-8.532
			c0-0.803-0.116-1.569-0.317-2.293h1.239C203.25,141.049,199.868,138.535,195.57,138.535z M198.87,146.996
			c0,2.709-1.996,4.801-4.492,4.801c-2.471,0-4.587-2.092-4.587-4.801c0-0.858,0.228-1.636,0.594-2.317h1.239
			c0.789-1.469,2.288-2.436,3.993-2.436c1.705,0,3.16,0.967,3.921,2.436h-1.239C198.652,145.359,198.87,146.138,198.87,146.996z
			 M160.706,138.654h-7.486v6.025h-1.239v10.635h4.349v-4.61h3.137h0.095l2.424,4.61h4.919l-3.47-5.442
			c1.878-0.974,2.912-2.767,2.961-5.193h1.239c0.001-0.061,0.009-0.117,0.009-0.178
			C167.645,140.793,165.126,138.654,160.706,138.654z M162.268,144.679c-0.015,1.663-1.032,2.555-2.777,2.555h-3.161v-2.555h1.239
			v-2.555h3.161c1.759,0,2.78,0.88,2.78,2.519c0,0.013-0.003,0.023-0.003,0.036H162.268z M177.912,138.654h-7.486v6.025h-1.239
			v10.635h4.349v-4.61h3.137h0.095l2.424,4.61h4.919l-3.47-5.442c1.878-0.974,2.912-2.767,2.961-5.193h1.239
			c0.001-0.061,0.01-0.117,0.01-0.178C184.851,140.793,182.333,138.654,177.912,138.654z M179.474,144.679
			c-0.015,1.663-1.032,2.555-2.778,2.555h-3.161v-2.555h1.239v-2.555h3.161c1.759,0,2.78,0.88,2.78,2.519
			c0,0.013-0.003,0.023-0.003,0.036H179.474z M137.178,138.654h13.143v3.47h-8.793v2.555h-1.239v0.558h7.938v3.446l-7.938,0.024
			v3.137h9.031v3.47h-13.38v-10.635h1.239V138.654z"/>
    </g>
  </g>
</svg>
