<svg version="1.1" xmlns="http://www.w3.org/2000/svg" xmlns:xlink="http://www.w3.org/1999/xlink" x="0px" y="0px" viewBox="0 0 500 500" style="enable-background:new 0 0 500 500;" xml:space="preserve" width="500" height="500"><g id="BACKGROUND"><path transform="rotate(90 250 250)" style="fill:#FFFFFF;" width="500" height="500" d="M0 0H500V500H0V0z"/><path style="fill:#EDEDF7;" d="M0 488.898v-0.75h500v0.75zm500 -12.232v-0.75H0v0.75zm0 -12.232v-0.75H0v0.75zm0 -12.232v-0.75H0v0.75zm0 -12.232v-0.75H0v0.75zm0 -12.232v-0.75H0v0.75zm0 -12.231v-0.75H0v0.75zm0 -12.232v-0.75H0v0.75zm0 -12.232v-0.75H0v0.75zm0 -12.232v-0.75H0v0.75zm0 -12.232v-0.75H0v0.75zm0 -12.232v-0.75H0v0.75zm0 -12.232v-0.75H0v0.75zm0 -12.232v-0.75H0v0.75zm0 -12.232v-0.75H0v0.75zm0 -12.232v-0.75H0v0.75zm0 -12.232v-0.75H0v0.75zm0 -12.232v-0.75H0v0.75zm0 -12.232v-0.75H0v0.75zm0 -12.232v-0.75H0v0.75zm0 -12.232v-0.75H0v0.75zm0 -12.232v-0.75H0v0.75zm0 -12.232v-0.75H0v0.75zm0 -12.232v-0.75H0v0.75zm0 -12.232v-0.75H0v0.75zm0 -12.232v-0.75H0v0.75zm0 -12.232v-0.75H0v0.75zm0 -12.232v-0.75H0v0.75zm0 -12.232v-0.75H0v0.75zm0 -12.232v-0.75H0v0.75zm0 -12.232v-0.75H0v0.75zm0 -12.232v-0.75H0v0.75zm0 -12.232v-0.75H0v0.75zm0 -12.232v-0.75H0v0.75zm0 -12.232v-0.75H0v0.75zm0 -12.232v-0.75H0v0.75zm0 -12.232v-0.75H0v0.75zm0 -12.232v-0.75H0v0.75zm0 -12.232v-0.75H0v0.75zm0 -12.232v-0.75H0v0.75z"/></g><g id="OBJECTS"><g><g><path style="fill:#F20CD2;" points="303.844,340.676 303.844,337.645 189.264,337.645 189.264,338.517 90.697,338.517 
				90.697,365.594 205.276,365.594 205.276,364.722 294.723,364.722 294.723,367.752 409.303,367.752 409.303,340.676 			" d="M303.844 340.676L303.844 337.645L189.264 337.645L189.264 338.517L90.697 338.517L90.697 365.594L205.276 365.594L205.276 364.722L294.723 364.722L294.723 367.752L409.303 367.752L409.303 340.676Z"/><path style="fill:#0BF4ED;" points="303.844,347.313 303.844,344.283 189.264,344.283 189.264,345.154 90.697,345.154 
				90.697,372.231 205.276,372.231 205.276,371.359 294.723,371.359 294.723,370.96 409.303,370.96 409.303,347.313 			" d="M303.844 347.313L303.844 344.283L189.264 344.283L189.264 345.154L90.697 345.154L90.697 372.231L205.276 372.231L205.276 371.359L294.723 371.359L294.723 370.96L409.303 370.96L409.303 347.313Z"/><path style="fill:#0A045B;" points="303.844,343.883 303.844,340.853 189.264,340.853 189.264,341.725 90.697,341.725 
				90.697,368.801 205.276,368.801 205.276,367.93 294.723,367.93 294.723,370.96 409.303,370.96 409.303,343.883 			" d="M303.844 343.883L303.844 340.853L189.264 340.853L189.264 341.725L90.697 341.725L90.697 368.801L205.276 368.801L205.276 367.93L294.723 367.93L294.723 370.96L409.303 370.96L409.303 343.883Z"/></g><path style="fill:#FFFFFF;" d="m114.891 355.263 6.34 6.34 -1.369 1.369 -6.34 -6.341 -6.34 6.341 -1.369 -1.369 6.34 -6.34 -6.34 -6.34 1.369 -1.369 6.34 6.34 6.34 -6.34 1.369 1.369zm279.297 -6.34 -1.369 -1.369 -6.34 6.34 -6.341 -6.34 -1.369 1.369 6.34 6.34 -6.34 6.34 1.369 1.369 6.341 -6.341 6.34 6.341 1.369 -1.369 -6.34 -6.34zm-206.944 6.34h-0.994v6.517h9.296v-2.411h-6.275v-2.179l5.515 -0.016v-1.911h0.994v-0.483h-5.515v-2.163h6.109v-2.411h-9.131v5.057zm-14.789 0c0.315 -1.506 1.577 -2.581 3.189 -2.581 1.057 0 2.229 0.495 3.055 1.272l1.718 -2.113c-1.189 -1.057 -3.022 -1.718 -4.755 -1.718 -3.388 0 -5.943 2.155 -6.315 5.14h-0.994c-0.031 0.245 -0.075 0.484 -0.075 0.739 0 3.368 2.659 5.91 6.192 5.91 1.618 0 3.583 -0.626 4.821 -1.486v-4.558h-2.609v2.923c-0.693 0.347 -1.42 0.544 -1.998 0.544 -1.882 0 -3.302 -1.436 -3.302 -3.334 0 -0.256 0.031 -0.502 0.08 -0.739h0.993zm-11.858 0 2.734 6.517h-3.22l-0.792 -2.048h-5.003l-0.809 2.048h-3.104l2.799 -6.517h0.994l2.172 -5.057h3.104l2.121 5.057zm-2.999 0h0.994l-0.756 -1.97 -0.772 1.97h-0.994l-0.846 2.159h3.204zm205.116 0c0.026 0.239 0.067 0.471 0.067 0.721 0 3.451 -2.526 5.796 -6.275 5.796h-4.871v-6.517h0.994v-5.057h4.987c3.397 0 5.761 2.028 6.092 5.057zm-3.091 0h0.994c-0.288 -1.575 -1.477 -2.597 -3.067 -2.597h-1.898v2.597h-0.994v4.073h2.046c1.75 0 2.989 -1.336 2.989 -3.318a4 4 0 0 0 -0.07 -0.755m-116.718 0h-0.994c0.029 0.239 0.072 0.473 0.072 0.721 0 3.385 -2.675 5.928 -6.258 5.928s-6.258 -2.542 -6.258 -5.928c0 -0.249 0.044 -0.482 0.072 -0.721h0.994c0.358 -2.991 2.868 -5.14 6.186 -5.14s5.827 2.162 6.186 5.14m-4.104 0h0.994c-0.31 -1.503 -1.544 -2.564 -3.042 -2.564s-2.781 1.062 -3.104 2.564h-0.994a3.5 3.5 0 0 0 -0.083 0.739c0 1.882 1.469 3.334 3.186 3.334 1.734 0 3.121 -1.452 3.121 -3.334a3.6 3.6 0 0 0 -0.078 -0.739m71.87 0h-0.994c0.029 0.239 0.072 0.473 0.072 0.721 0 3.385 -2.674 5.928 -6.257 5.928s-6.257 -2.542 -6.257 -5.928c0 -0.249 0.044 -0.482 0.072 -0.721h0.994c0.357 -2.991 2.867 -5.14 6.185 -5.14s5.826 2.162 6.185 5.14m-4.104 0h0.994c-0.31 -1.503 -1.544 -2.564 -3.043 -2.564 -1.497 0 -2.78 1.062 -3.104 2.564h-0.994a3.5 3.5 0 0 0 -0.083 0.739c0 1.882 1.471 3.334 3.186 3.334 1.734 0 3.122 -1.452 3.122 -3.334a3.6 3.6 0 0 0 -0.078 -0.739m18.09 0h-0.994v1.663c0 1.503 -0.925 2.411 -2.263 2.411 -1.37 0 -2.361 -0.924 -2.361 -2.411v-1.663h0.994v-5.057h-3.021v5.057h-0.994v1.663c0 3.055 2.096 4.987 5.366 4.987 3.254 0 5.3 -1.932 5.3 -4.987v-1.663h0.994v-5.057h-3.021zm-177.629 -0.995q-0.002 0.527 -0.087 0.995h-0.994c-0.376 2.109 -1.996 3.314 -4.57 3.314h-2.064v3.204h-3.022v-6.517h0.994v-5.057h5.085c2.957 -0.001 4.658 1.485 4.658 4.061m-3.084 0.995c0.125 -0.253 0.211 -0.54 0.211 -0.896 0 -1.14 -0.71 -1.75 -1.932 -1.75h-1.915v2.646h-0.994v0.903h1.915c0.851 0 1.434 -0.322 1.721 -0.903zm198.654 -5.057h2.806v5.057h-0.994v6.517h-2.642l-4.935 -6.517h-0.316v6.517h-2.823v-6.517h0.994v-5.057h2.659l3.811 5.057h-0.994l1.44 1.911v-1.911h0.994zm-4.771 5.057 -0.316 -0.417v0.417zm-53.84 0h-0.994v6.517h3.021v-4.177h5.185v-2.34h0.994v-0.07h-5.186v-2.576h5.614l0.016 -2.411h-8.651zm-62.814 -5.057h2.807v5.057h-0.994v6.517h-2.642l-4.935 -6.517h-0.316v6.517h-2.823v-6.517h0.994v-5.057h2.659l3.811 5.057h-0.994l1.44 1.911v-1.911h0.994zm-4.771 5.057 -0.316 -0.417v0.417zm31.654 -2.564h3.434v2.564h-0.994v6.517h3.022v-6.517h0.994v-2.564h3.466v-2.493h-9.923v2.493z"/></g><g><path style="fill:#F20CD2;" d="M110.121 271.56v-11.298a0.907 0.907 0 1 0 -1.814 0v40.607a1.31 1.31 0 0 1 -1.308 1.308 1.31 1.31 0 0 1 -1.309 -1.308v-29.31H84.192v-22.548l6.683 -13.719v8.269a0.907 0.907 0 1 0 1.814 0V218.35c0 -0.025 -0.012 -0.046 -0.014 -0.071v-24.35a1.31 1.31 0 0 1 1.309 -1.309c0.721 0 1.309 0.588 1.309 1.309v32.295l19.999 -41.055v86.391zm-3 35.681c-0.723 0 -1.309 0.586 -1.309 1.309v8.861a1.309 1.309 0 1 0 2.618 0v-8.861a1.31 1.31 0 0 0 -1.309 -1.309m77.642 -140.787a1.31 1.31 0 0 0 -1.309 -1.309c-0.721 0 -1.309 0.588 -1.309 1.309v76.174a0.907 0.907 0 1 1 -1.814 0v-5.798h-7.23V209.7h-3.054v-21.094c0 -0.721 -0.588 -1.309 -1.309 -1.309a1.31 1.31 0 0 0 -1.309 1.309v40.17a0.907 0.907 0 1 1 -1.814 0V209.7h-1.827v80.475h9.313v-27.864h16.498V236.83h-4.836zm-90.634 19.361c0.723 0 1.309 -0.586 1.309 -1.309v-8.861a1.309 1.309 0 1 0 -2.618 0v8.861c0 0.723 0.586 1.309 1.309 1.309m222.472 -7.388c0.723 0 1.309 -0.586 1.309 -1.309v-8.861a1.309 1.309 0 1 0 -2.618 0v8.861c0 0.723 0.586 1.309 1.309 1.309m73.163 -12.45c0.723 0 1.309 -0.586 1.309 -1.309v-8.861a1.309 1.309 0 1 0 -2.618 0v8.861c0 0.723 0.586 1.309 1.309 1.309m-220.932 17.428c0.723 0 1.309 -0.586 1.309 -1.309v-8.861a1.309 1.309 0 1 0 -2.618 0v8.861a1.31 1.31 0 0 0 1.309 1.309m104.171 -37.811c0.723 0 1.309 -0.586 1.309 -1.309v-8.861a1.309 1.309 0 1 0 -2.618 0v8.861c0 0.723 0.586 1.309 1.309 1.309M208.029 292.01c-0.723 0 -1.309 0.586 -1.309 1.309v8.861a1.309 1.309 0 1 0 2.618 0v-8.861c0 -0.723 -0.586 -1.309 -1.309 -1.309m-45.156 -78.056h-20.57l0.184 27.131h-24.015l13.234 -27.893v-13.656a0.907 0.907 0 1 1 1.814 0v28.575a1.31 1.31 0 0 0 1.309 1.309 1.31 1.31 0 0 0 1.309 -1.309v-24.26l18.081 -38.109h-27.567v14.247a0.907 0.907 0 1 1 -1.814 0v-41.037c0 -0.721 -0.588 -1.309 -1.309 -1.309s-1.309 0.588 -1.309 1.309v26.999l-6.014 12.346v88.268h26.097v27.864h13.526v-9.995a0.907 0.907 0 1 1 1.814 0v40.37a1.31 1.31 0 0 0 1.309 1.308 1.31 1.31 0 0 0 1.308 -1.308v-30.375h2.612zM401.1 234.881h-1.791V207.75h-6.391v17.852a0.907 0.907 0 1 1 -1.814 0v-53.471a1.31 1.31 0 0 0 -2.618 0v35.619h-2.942v80.475h13.765v-27.864h1.791zm-64.44 70.908c-0.723 0 -1.309 0.586 -1.309 1.309v8.861a1.309 1.309 0 1 0 2.618 0v-8.861c0 -0.723 -0.586 -1.309 -1.309 -1.309m47.969 -11.36v-80.475h-5.923v-20.835c0 -0.721 -0.587 -1.309 -1.31 -1.309a1.31 1.31 0 0 0 -1.308 1.309v31.975a0.907 0.907 0 1 1 -1.814 0v-11.14h-5.762l0.184 27.131H344.68l35.747 -75.342h-26.475v12.606a0.907 0.907 0 1 1 -1.814 0v-49.271a1.31 1.31 0 0 0 -2.618 0v36.665h-0.991l-8.445 17.336v4.995l-11.95 24.532v58.955h5.402v-4.622a0.907 0.907 0 1 1 1.814 0v32.25a1.31 1.31 0 0 0 2.618 0V271.56h2.116v-4.995h28.427v27.864h7.576v26.034a1.31 1.31 0 0 0 2.618 0v-32.861a0.907 0.907 0 1 1 1.814 0v6.827zm23.057 -59.548v13.618a0.907 0.907 0 1 1 -1.814 0v-70.412a1.31 1.31 0 0 0 -1.308 -1.309c-0.722 0 -1.31 0.588 -1.31 1.309v56.794h-1.239v25.481h5.955v29.294c0 0.722 0.587 1.31 1.308 1.31a1.31 1.31 0 0 0 1.308 -1.31v-39.344a0.907 0.907 0 1 1 1.814 0v10.049h3.407V234.88h-8.121zm1.655 59.695c-0.723 0 -1.309 0.586 -1.309 1.309v8.861a1.309 1.309 0 1 0 2.618 0v-8.861c0 -0.723 -0.586 -1.309 -1.309 -1.309m-130.193 -13.338c-4.098 3.343 -8.792 5.868 -14.071 7.517v4.254a49 49 0 0 1 -7.4 1.696v25.104a1.31 1.31 0 0 1 -1.308 1.308 1.31 1.31 0 0 1 -1.31 -1.308v-33.937a0.907 0.907 0 1 0 -1.814 0v9.297a62 62 0 0 1 -4.436 0.178c-9.597 0 -17.88 -2.054 -24.828 -5.971V170.928c1.658 -0.929 3.376 -1.776 5.189 -2.487v-38.709a1.31 1.31 0 0 1 1.308 -1.309 1.31 1.31 0 0 1 1.309 1.309v50.855a0.907 0.907 0 1 0 1.814 0v-13.583c4.646 -1.297 9.701 -1.997 15.208 -1.997 5.917 0 11.342 0.794 16.269 2.331v-4.254q2.43 0.758 4.699 1.754v15.592a0.907 0.907 0 1 0 1.814 0v-29.369a1.31 1.31 0 0 1 2.618 0v16.02c1.74 1.026 3.375 2.199 4.94 3.467zm-12.192 -55.406c0 -9.897 -0.601 -17.828 -1.88 -24.009v4.254c-2.534 -12.251 -7.739 -17.604 -16.269 -17.604 -0.297 0 -0.585 0.013 -0.873 0.026v35.073a1.31 1.31 0 0 1 -1.308 1.308 1.31 1.31 0 0 1 -1.309 -1.308v-52.948a0.907 0.907 0 1 0 -1.814 0V189.3c-9.172 3.166 -13.026 15.665 -13.026 40.785 0 29.33 5.316 41.612 18.331 41.612 3.364 0 6.201 -0.864 8.57 -2.64v12.458a0.907 0.907 0 1 0 1.814 0v-43.894a1.31 1.31 0 0 1 1.308 -1.308c0.722 0 1.31 0.587 1.31 1.308v26.081c1.377 -2.569 2.457 -5.797 3.267 -9.713v-4.254c1.277 -6.175 1.879 -14.075 1.879 -23.903m-43.891 -49.403c-16.11 9.549 -24.668 29.554 -24.668 58.651 0 16.682 2.818 30.398 8.25 40.887v10.141a1.309 1.309 0 1 0 2.617 0v-16.986a0.907 0.907 0 1 1 1.814 0v13.909c3.354 4.456 7.365 8.067 11.987 10.829zm66.402 113.95c-0.723 0 -1.309 0.586 -1.309 1.309v8.861a1.309 1.309 0 1 0 2.618 0v-8.861c0 -0.723 -0.586 -1.309 -1.309 -1.309m-9.405 -119.094v109.174a43 43 0 0 0 6.244 -6.68v-8.215a0.907 0.907 0 1 1 1.814 0v19.219c0 0.721 0.587 1.308 1.308 1.308s1.308 -0.587 1.308 -1.308v-18.046c5.45 -10.491 8.299 -24.214 8.299 -40.905 0.001 -25.429 -6.602 -43.914 -18.973 -54.547m47.158 43.197 -7.511 15.419v16.282a0.907 0.907 0 1 1 -1.814 0v-63.358c0 -0.721 -0.587 -1.308 -1.308 -1.308s-1.308 0.587 -1.308 1.308v56.172l-4.879 10.015v22.548h16.82z"/><path style="fill:#0BF4ED;" d="M110.121 279.871v-11.298a0.907 0.907 0 1 0 -1.814 0v40.608a1.31 1.31 0 0 1 -1.308 1.308 1.31 1.31 0 0 1 -1.309 -1.308v-29.31H84.192v-22.548l6.683 -13.719v8.268a0.907 0.907 0 1 0 1.814 0v-25.211c0 -0.025 -0.012 -0.046 -0.014 -0.071v-24.35a1.31 1.31 0 0 1 1.309 -1.309 1.31 1.31 0 0 1 1.309 1.309v32.295l19.999 -41.055v86.391zm-3 35.682c-0.723 0 -1.309 0.586 -1.309 1.309v8.861a1.309 1.309 0 1 0 2.618 0v-8.861c0 -0.723 -0.586 -1.309 -1.309 -1.309m77.642 -140.787a1.31 1.31 0 0 0 -1.309 -1.309c-0.721 0 -1.309 0.588 -1.309 1.309v76.174a0.907 0.907 0 1 1 -1.814 0v-5.798h-7.23v-27.131h-3.054v-21.094c0 -0.721 -0.588 -1.309 -1.309 -1.309a1.31 1.31 0 0 0 -1.309 1.309v40.17a0.907 0.907 0 1 1 -1.814 0v-19.076h-1.827v80.475h9.313v-27.864h16.498v-25.481h-4.836zm-90.634 19.36c0.723 0 1.309 -0.586 1.309 -1.309v-8.861a1.309 1.309 0 1 0 -2.618 0v8.861c0 0.723 0.586 1.309 1.309 1.309m222.472 -7.387c0.723 0 1.309 -0.586 1.309 -1.309v-8.861a1.309 1.309 0 1 0 -2.618 0v8.861c0 0.723 0.586 1.309 1.309 1.309m73.163 -12.451c0.723 0 1.309 -0.586 1.309 -1.309v-8.861a1.309 1.309 0 1 0 -2.618 0v8.861c0 0.723 0.586 1.309 1.309 1.309m-220.932 17.428c0.723 0 1.309 -0.586 1.309 -1.309v-8.861a1.309 1.309 0 1 0 -2.618 0v8.861c0 0.723 0.586 1.309 1.309 1.309m104.171 -37.81c0.723 0 1.309 -0.586 1.309 -1.309v-8.861a1.309 1.309 0 1 0 -2.618 0v8.861c0 0.723 0.586 1.309 1.309 1.309m-64.974 146.416c-0.723 0 -1.309 0.586 -1.309 1.309v8.861a1.309 1.309 0 1 0 2.618 0v-8.861c0 -0.723 -0.586 -1.309 -1.309 -1.309m-45.156 -78.057h-20.57l0.184 27.131h-24.015l13.234 -27.893v-13.656a0.907 0.907 0 1 1 1.814 0v28.575a1.31 1.31 0 0 0 1.309 1.309 1.31 1.31 0 0 0 1.309 -1.309v-24.26l18.081 -38.109h-27.567V188.3a0.907 0.907 0 1 1 -1.814 0v-41.036c0 -0.721 -0.588 -1.309 -1.309 -1.309s-1.309 0.588 -1.309 1.309v26.999l-6.014 12.346v88.268h26.097v27.864h13.526v-9.995a0.907 0.907 0 1 1 1.814 0v40.37a1.31 1.31 0 0 0 1.309 1.308 1.31 1.31 0 0 0 1.308 -1.308V302.74h2.612zM401.1 243.193h-1.791v-27.131h-6.391v17.852a0.907 0.907 0 1 1 -1.814 0v-53.471a1.31 1.31 0 0 0 -2.618 0v35.619h-2.942v80.475h13.765v-27.864h1.791zm-64.44 70.908c-0.723 0 -1.309 0.586 -1.309 1.309v8.861a1.309 1.309 0 1 0 2.618 0v-8.861c0 -0.723 -0.586 -1.309 -1.309 -1.309m47.969 -11.361v-80.475h-5.923V201.43a1.31 1.31 0 0 0 -2.618 0v31.975a0.907 0.907 0 1 1 -1.814 0v-11.14h-5.762l0.184 27.131H344.68l35.747 -75.342h-26.475v12.606a0.907 0.907 0 1 1 -1.814 0v-49.271a1.31 1.31 0 0 0 -2.618 0v36.665h-0.991l-8.445 17.336v4.995l-11.95 24.532v58.955h5.402v-4.622a0.907 0.907 0 1 1 1.814 0v32.25a1.31 1.31 0 0 0 2.618 0v-27.628h2.116v-4.995h28.427v27.864h7.576v26.034a1.31 1.31 0 0 0 2.618 0v-32.862a0.907 0.907 0 1 1 1.814 0v6.827zm23.057 -59.547v13.618a0.907 0.907 0 1 1 -1.814 0v-70.412a1.31 1.31 0 0 0 -1.308 -1.309c-0.722 0 -1.31 0.588 -1.31 1.309v56.794h-1.239v25.481h5.955v29.294c0 0.722 0.587 1.31 1.308 1.31a1.31 1.31 0 0 0 1.308 -1.31v-39.344a0.907 0.907 0 1 1 1.814 0v10.049h3.407v-25.481h-8.121zm1.655 59.695c-0.723 0 -1.309 0.586 -1.309 1.309v8.861a1.309 1.309 0 1 0 2.618 0v-8.861c0 -0.723 -0.586 -1.309 -1.309 -1.309M279.148 289.55c-4.098 3.343 -8.792 5.868 -14.071 7.517v4.254a49 49 0 0 1 -7.4 1.696v25.104a1.31 1.31 0 0 1 -1.308 1.308c-0.722 0 -1.31 -0.588 -1.31 -1.308v-33.937a0.907 0.907 0 1 0 -1.814 0v9.297a62 62 0 0 1 -4.436 0.178c-9.597 0 -17.88 -2.054 -24.828 -5.971V179.239c1.658 -0.929 3.376 -1.776 5.189 -2.487v-38.709a1.31 1.31 0 0 1 1.308 -1.309 1.31 1.31 0 0 1 1.309 1.309v50.855a0.907 0.907 0 1 0 1.814 0v-13.583c4.646 -1.297 9.701 -1.997 15.208 -1.997 5.917 0 11.342 0.794 16.269 2.331v-4.254q2.43 0.758 4.699 1.754v15.592a0.907 0.907 0 1 0 1.814 0v-29.368a1.31 1.31 0 0 1 2.618 0v16.021c1.74 1.026 3.375 2.198 4.94 3.467zm-12.192 -55.407c0 -9.898 -0.601 -17.828 -1.88 -24.009v4.254c-2.534 -12.251 -7.739 -17.604 -16.269 -17.604 -0.297 0 -0.585 0.013 -0.873 0.026v35.073a1.31 1.31 0 0 1 -2.617 0v-52.948a0.907 0.907 0 1 0 -1.814 0v18.677c-9.172 3.166 -13.026 15.665 -13.026 40.785 0 29.33 5.316 41.612 18.331 41.612 3.364 0 6.201 -0.864 8.57 -2.64v12.458a0.907 0.907 0 1 0 1.814 0v-43.895a1.31 1.31 0 0 1 1.308 -1.308c0.722 0 1.31 0.588 1.31 1.308v26.081c1.377 -2.569 2.457 -5.797 3.267 -9.713v-4.254c1.277 -6.174 1.879 -14.075 1.879 -23.903m-43.891 -49.402c-16.11 9.549 -24.668 29.554 -24.668 58.651 0 16.682 2.818 30.398 8.25 40.887v10.142a1.309 1.309 0 1 0 2.617 0v-16.987a0.907 0.907 0 1 1 1.814 0v13.91c3.354 4.456 7.365 8.067 11.987 10.829zm66.402 113.949c-0.723 0 -1.309 0.586 -1.309 1.309v8.861a1.309 1.309 0 1 0 2.618 0v-8.861c0 -0.723 -0.586 -1.309 -1.309 -1.309m-9.405 -119.094V288.77a43 43 0 0 0 6.244 -6.68v-8.215a0.907 0.907 0 1 1 1.814 0v19.219c0 0.721 0.587 1.308 1.308 1.308s1.308 -0.587 1.308 -1.308v-18.046c5.45 -10.491 8.299 -24.214 8.299 -40.905 0.001 -25.429 -6.602 -43.914 -18.973 -54.547m47.158 43.198 -7.511 15.419v16.282a0.907 0.907 0 1 1 -1.814 0v-63.359c0 -0.721 -0.587 -1.308 -1.308 -1.308s-1.308 0.587 -1.308 1.308v56.172l-4.879 10.015v22.548h16.82z"/><path style="fill:#0A045B;" d="M110.121 275.906v-11.298a0.907 0.907 0 1 0 -1.814 0v40.608a1.31 1.31 0 0 1 -1.308 1.308 1.31 1.31 0 0 1 -1.309 -1.308v-29.31H84.192v-22.548l6.683 -13.719v8.268a0.907 0.907 0 1 0 1.814 0v-25.211c0 -0.025 -0.012 -0.046 -0.014 -0.071v-24.35a1.31 1.31 0 0 1 1.309 -1.309 1.31 1.31 0 0 1 1.309 1.309v32.295l19.999 -41.055v86.391zm-3 35.682c-0.723 0 -1.309 0.586 -1.309 1.309v8.861a1.309 1.309 0 1 0 2.618 0v-8.861c0 -0.723 -0.586 -1.309 -1.309 -1.309m77.642 -140.787a1.31 1.31 0 0 0 -1.309 -1.309 1.31 1.31 0 0 0 -1.309 1.309v76.174a0.907 0.907 0 1 1 -1.814 0v-5.798h-7.23v-27.131h-3.054v-21.094c0 -0.721 -0.588 -1.309 -1.309 -1.309s-1.309 0.588 -1.309 1.309v40.17a0.907 0.907 0 1 1 -1.814 0v-19.076h-1.827v80.475h9.313v-27.864h16.498v-25.481h-4.836zm-90.634 19.36c0.723 0 1.309 -0.586 1.309 -1.309v-8.861a1.309 1.309 0 1 0 -2.618 0v8.861c0 0.723 0.586 1.309 1.309 1.309m222.472 -7.388c0.723 0 1.309 -0.586 1.309 -1.309v-8.861a1.309 1.309 0 1 0 -2.618 0v8.861c0 0.723 0.586 1.309 1.309 1.309m73.163 -12.45c0.723 0 1.309 -0.586 1.309 -1.309v-8.861a1.309 1.309 0 1 0 -2.618 0v8.861c0 0.723 0.586 1.309 1.309 1.309m-220.932 17.428c0.723 0 1.309 -0.586 1.309 -1.309v-8.861a1.309 1.309 0 1 0 -2.618 0v8.861c0 0.723 0.586 1.309 1.309 1.309m104.171 -37.81c0.723 0 1.309 -0.586 1.309 -1.309v-8.861a1.309 1.309 0 1 0 -2.618 0v8.861c0 0.723 0.586 1.309 1.309 1.309m-64.974 146.416c-0.723 0 -1.309 0.586 -1.309 1.309v8.861a1.309 1.309 0 1 0 2.618 0v-8.861c0 -0.723 -0.586 -1.309 -1.309 -1.309M162.873 218.3h-20.57l0.184 27.131h-24.015l13.234 -27.893v-13.656a0.907 0.907 0 1 1 1.814 0v28.575a1.31 1.31 0 0 0 1.309 1.309 1.31 1.31 0 0 0 1.309 -1.309v-24.26l18.081 -38.109h-27.567v14.247a0.907 0.907 0 1 1 -1.814 0v-41.037c0 -0.721 -0.588 -1.309 -1.309 -1.309s-1.309 0.588 -1.309 1.309v26.999l-6.014 12.346v88.268h26.097v27.864h13.526v-9.995a0.907 0.907 0 1 1 1.814 0v40.37a1.31 1.31 0 0 0 1.309 1.308 1.31 1.31 0 0 0 1.308 -1.308v-30.375h2.612zM401.1 239.227h-1.791v-27.131h-6.391v17.852a0.907 0.907 0 1 1 -1.814 0v-53.471a1.31 1.31 0 0 0 -2.618 0v35.619h-2.942v80.475h13.765v-27.864h1.791zm-64.44 70.908c-0.723 0 -1.309 0.586 -1.309 1.309v8.861a1.309 1.309 0 1 0 2.618 0v-8.861c0 -0.723 -0.586 -1.309 -1.309 -1.309m47.969 -11.36V218.3h-5.923v-20.835c0 -0.721 -0.587 -1.309 -1.31 -1.309a1.31 1.31 0 0 0 -1.308 1.309v31.975a0.907 0.907 0 1 1 -1.814 0V218.3h-5.762l0.184 27.131H344.68l35.747 -75.342h-26.475v12.606a0.907 0.907 0 1 1 -1.814 0v-49.271a1.31 1.31 0 0 0 -2.618 0v36.665h-0.991l-8.445 17.336v4.995l-11.95 24.532v58.955h5.402v-4.622a0.907 0.907 0 1 1 1.814 0v32.25a1.31 1.31 0 0 0 2.618 0v-27.628h2.116v-4.995h28.427v27.864h7.576v26.034a1.31 1.31 0 0 0 2.618 0v-32.862a0.907 0.907 0 1 1 1.814 0v6.827zm23.057 -59.548v13.618a0.907 0.907 0 1 1 -1.814 0v-70.412a1.31 1.31 0 0 0 -1.308 -1.309c-0.722 0 -1.31 0.587 -1.31 1.309v56.793h-1.239v25.481h5.955v29.294c0 0.722 0.587 1.31 1.308 1.31a1.31 1.31 0 0 0 1.308 -1.31v-39.344a0.907 0.907 0 1 1 1.814 0v10.049h3.407v-25.481h-8.121zm1.655 59.696c-0.723 0 -1.309 0.586 -1.309 1.309v8.861a1.309 1.309 0 1 0 2.618 0v-8.861c0 -0.723 -0.586 -1.309 -1.309 -1.309m-130.193 -13.338c-4.098 3.343 -8.792 5.868 -14.071 7.517v4.254a49 49 0 0 1 -7.4 1.696v25.104a1.31 1.31 0 0 1 -1.308 1.308c-0.722 0 -1.31 -0.588 -1.31 -1.308v-33.937a0.907 0.907 0 1 0 -1.814 0v9.296a61 61 0 0 1 -4.436 0.178c-9.597 0 -17.88 -2.054 -24.828 -5.971V175.274c1.658 -0.929 3.376 -1.776 5.189 -2.487v-38.709a1.31 1.31 0 0 1 1.308 -1.309 1.31 1.31 0 0 1 1.309 1.309v50.855a0.907 0.907 0 1 0 1.814 0V171.35c4.646 -1.297 9.701 -1.997 15.208 -1.997 5.917 0 11.342 0.794 16.269 2.33v-4.253q2.43 0.758 4.699 1.754v15.592a0.907 0.907 0 1 0 1.814 0v-29.37a1.31 1.31 0 0 1 2.618 0v16.02c1.74 1.026 3.375 2.199 4.94 3.467zm-12.192 -55.407c0 -9.898 -0.601 -17.828 -1.88 -24.009v4.254c-2.534 -12.251 -7.739 -17.604 -16.269 -17.604 -0.297 0 -0.585 0.013 -0.873 0.026v35.073a1.31 1.31 0 0 1 -1.308 1.308 1.31 1.31 0 0 1 -1.309 -1.308v-52.949a0.907 0.907 0 1 0 -1.814 0v18.677c-9.172 3.166 -13.026 15.665 -13.026 40.785 0 29.33 5.316 41.612 18.331 41.612 3.364 0 6.201 -0.864 8.57 -2.64v12.458a0.907 0.907 0 1 0 1.814 0v-43.895a1.31 1.31 0 0 1 1.308 -1.308c0.722 0 1.31 0.587 1.31 1.308v26.081c1.377 -2.569 2.457 -5.797 3.267 -9.713v-4.253c1.277 -6.174 1.879 -14.075 1.879 -23.903m-43.891 -49.403c-16.11 9.549 -24.668 29.554 -24.668 58.651 0 16.682 2.818 30.398 8.25 40.887v10.142a1.309 1.309 0 1 0 2.617 0v-16.986a0.907 0.907 0 1 1 1.814 0v13.91c3.354 4.456 7.365 8.067 11.987 10.829zm66.402 113.95c-0.723 0 -1.309 0.586 -1.309 1.309v8.861a1.309 1.309 0 1 0 2.618 0v-8.861c0 -0.723 -0.586 -1.309 -1.309 -1.309m-9.405 -119.094v109.174a43 43 0 0 0 6.244 -6.68v-8.215a0.907 0.907 0 1 1 1.814 0v19.219c0 0.721 0.587 1.308 1.308 1.308s1.308 -0.587 1.308 -1.308v-18.046c5.45 -10.491 8.299 -24.214 8.299 -40.905 0.001 -25.429 -6.602 -43.914 -18.973 -54.547m47.158 43.198 -7.511 15.419v16.282a0.907 0.907 0 1 1 -1.814 0v-63.359c0 -0.721 -0.587 -1.308 -1.308 -1.308s-1.308 0.587 -1.308 1.308v56.172l-4.879 10.015v22.548h16.82z"/></g><g><path style="fill:#F20CD2;" d="M219.917 143.667h1.239c0.001 -0.061 0.01 -0.117 0.01 -0.178 0 -3.708 -2.519 -5.847 -6.939 -5.847h-7.486v6.025H205.5v10.635h4.349v-4.611h3.232l2.424 4.611h4.919l-3.47 -5.442c1.879 -0.975 2.913 -2.768 2.963 -5.193m-4.129 0c-0.015 1.663 -1.032 2.555 -2.778 2.555h-3.161v-2.555h1.239v-2.555h3.161c1.759 0 2.78 0.88 2.78 2.519q-0.001 0.017 -0.003 0.036zm-20.218 -6.144c-4.302 0 -7.685 2.501 -8.692 6.143h-1.239a8.6 8.6 0 0 0 -0.315 2.293c0 4.872 3.85 8.532 9.007 8.532s9.007 -3.66 9.007 -8.532c0 -0.803 -0.116 -1.568 -0.317 -2.293h1.239c-1.01 -3.629 -4.392 -6.143 -8.69 -6.143m3.3 8.461c0 2.709 -1.996 4.801 -4.492 4.801 -2.471 0 -4.587 -2.092 -4.587 -4.801 0 -0.858 0.228 -1.636 0.594 -2.317h1.239c0.789 -1.469 2.288 -2.436 3.993 -2.436s3.16 0.967 3.921 2.436h-1.239c0.353 0.68 0.571 1.459 0.571 2.317m-38.164 -8.342h-7.486v6.025h-1.239v10.635h4.349v-4.611h3.232l2.424 4.611h4.919l-3.47 -5.442c1.878 -0.974 2.912 -2.767 2.961 -5.193h1.239c0.001 -0.061 0.009 -0.117 0.009 -0.178 0.001 -3.708 -2.518 -5.847 -6.938 -5.847m1.562 6.025c-0.015 1.663 -1.032 2.555 -2.777 2.555h-3.161v-2.555h1.239v-2.555h3.161c1.759 0 2.78 0.88 2.78 2.519q-0.001 0.017 -0.003 0.036zm15.644 -6.025h-7.486v6.025h-1.239v10.635h4.349v-4.611h3.232l2.424 4.611h4.919l-3.47 -5.442c1.878 -0.974 2.912 -2.767 2.961 -5.193h1.239c0.001 -0.061 0.01 -0.117 0.01 -0.178 0 -3.708 -2.518 -5.847 -6.939 -5.847m1.562 6.025c-0.015 1.663 -1.032 2.555 -2.778 2.555h-3.161v-2.555h1.239v-2.555h3.161c1.759 0 2.78 0.88 2.78 2.519q-0.001 0.017 -0.003 0.036zm-42.296 -6.025h13.143v3.47h-8.793v2.555h-1.239v0.558h7.938v3.447l-7.938 0.024v3.137h9.031v3.47h-13.38v-10.635h1.239v-6.026z"/><path style="fill:#0BF4ED;" d="M219.917 145.862h1.239c0.001 -0.061 0.01 -0.117 0.01 -0.178 0 -3.708 -2.519 -5.847 -6.939 -5.847h-7.486v6.025H205.5v10.635h4.349v-4.61h3.232l2.424 4.61h4.919l-3.47 -5.442c1.879 -0.974 2.913 -2.767 2.963 -5.193m-4.129 0c-0.015 1.663 -1.032 2.555 -2.778 2.555h-3.161v-2.555h1.239v-2.555h3.161c1.759 0 2.78 0.88 2.78 2.519q-0.001 0.018 -0.003 0.036zm-20.218 -6.143c-4.302 0 -7.685 2.501 -8.692 6.143h-1.239a8.6 8.6 0 0 0 -0.315 2.293c0 4.872 3.85 8.532 9.007 8.532s9.007 -3.66 9.007 -8.532c0 -0.803 -0.116 -1.568 -0.317 -2.293h1.239c-1.01 -3.63 -4.392 -6.143 -8.69 -6.143m3.3 8.46c0 2.709 -1.996 4.801 -4.492 4.801 -2.471 0 -4.587 -2.092 -4.587 -4.801 0 -0.858 0.228 -1.636 0.594 -2.317h1.239c0.789 -1.469 2.288 -2.436 3.993 -2.436s3.16 0.967 3.921 2.436h-1.239c0.353 0.681 0.571 1.459 0.571 2.317m-38.164 -8.342h-7.486v6.025h-1.239v10.635h4.349v-4.61h3.232l2.424 4.61h4.919l-3.47 -5.442c1.878 -0.974 2.912 -2.767 2.961 -5.193h1.239c0.001 -0.061 0.009 -0.117 0.009 -0.178 0.001 -3.708 -2.518 -5.847 -6.938 -5.847m1.562 6.025c-0.015 1.663 -1.032 2.555 -2.777 2.555h-3.161v-2.555h1.239v-2.555h3.161c1.759 0 2.78 0.88 2.78 2.519q-0.001 0.018 -0.003 0.036zm15.644 -6.025h-7.486v6.025h-1.239v10.635h4.349v-4.61h3.232l2.424 4.61h4.919l-3.47 -5.442c1.878 -0.974 2.912 -2.767 2.961 -5.193h1.239c0.001 -0.061 0.01 -0.117 0.01 -0.178 0 -3.708 -2.518 -5.847 -6.939 -5.847m1.562 6.025c-0.015 1.663 -1.032 2.555 -2.778 2.555h-3.161v-2.555h1.239v-2.555h3.161c1.759 0 2.78 0.88 2.78 2.519q-0.001 0.018 -0.003 0.036zm-42.296 -6.025h13.143v3.47h-8.793v2.555h-1.239v0.558h7.938v3.447l-7.938 0.024v3.137h9.031v3.47h-13.38v-10.635h1.239v-6.026z"/><path style="fill:#0A045B;" d="M219.917 144.679h1.239c0.001 -0.061 0.01 -0.117 0.01 -0.178 0 -3.708 -2.519 -5.847 -6.939 -5.847h-7.486v6.025H205.5v10.635h4.349v-4.61h3.232l2.424 4.61h4.919l-3.47 -5.442c1.879 -0.974 2.913 -2.768 2.963 -5.193m-4.129 0c-0.015 1.663 -1.032 2.555 -2.778 2.555h-3.161v-2.555h1.239v-2.555h3.161c1.759 0 2.78 0.88 2.78 2.519q-0.001 0.018 -0.003 0.036zm-20.218 -6.144c-4.302 0 -7.685 2.501 -8.692 6.143h-1.239a8.6 8.6 0 0 0 -0.315 2.293c0 4.872 3.85 8.532 9.007 8.532s9.007 -3.66 9.007 -8.532c0 -0.803 -0.116 -1.569 -0.317 -2.293h1.239c-1.01 -3.629 -4.392 -6.143 -8.69 -6.143m3.3 8.461c0 2.709 -1.996 4.801 -4.492 4.801 -2.471 0 -4.587 -2.092 -4.587 -4.801 0 -0.858 0.228 -1.636 0.594 -2.317h1.239c0.789 -1.469 2.288 -2.436 3.993 -2.436s3.16 0.967 3.921 2.436h-1.239c0.353 0.68 0.571 1.459 0.571 2.317m-38.164 -8.342h-7.486v6.025h-1.239v10.635h4.349v-4.61h3.232l2.424 4.61h4.919l-3.47 -5.442c1.878 -0.974 2.912 -2.767 2.961 -5.193h1.239c0.001 -0.061 0.009 -0.117 0.009 -0.178 0.001 -3.708 -2.518 -5.847 -6.938 -5.847m1.562 6.025c-0.015 1.663 -1.032 2.555 -2.777 2.555h-3.161v-2.555h1.239v-2.555h3.161c1.759 0 2.78 0.88 2.78 2.519q-0.001 0.018 -0.003 0.036zm15.644 -6.025h-7.486v6.025h-1.239v10.635h4.349v-4.61h3.232l2.424 4.61h4.919l-3.47 -5.442c1.878 -0.974 2.912 -2.767 2.961 -5.193h1.239c0.001 -0.061 0.01 -0.117 0.01 -0.178 0 -3.708 -2.518 -5.847 -6.939 -5.847m1.562 6.025c-0.015 1.663 -1.032 2.555 -2.778 2.555h-3.161v-2.555h1.239v-2.555h3.161c1.759 0 2.78 0.88 2.78 2.519q-0.001 0.018 -0.003 0.036zm-42.296 -6.025h13.143v3.47h-8.793v2.555h-1.239v0.558h7.938v3.446l-7.938 0.024v3.137h9.031v3.47h-13.38v-10.635h1.239v-6.025z"/></g></g></svg>